<svg id="Layer_1" enable-background="new 0 0 512.036 512.036" height="512" viewBox="0 0 512.036 512.036" width="512" xmlns="http://www.w3.org/2000/svg"><g><path d="m92.746 41.817c94.267-42.374 232.276-42.374 326.543-.001 11.081 4.981 19.836 13.957 24.626 25.122 42.805 99.774 42.804 246.427-.002 346.2-4.789 11.162-13.542 20.137-24.621 25.117-94.268 42.375-232.281 42.375-326.549 0-11.079-4.98-19.832-13.954-24.621-25.117-42.805-99.774-42.806-246.428 0-346.202 4.79-11.164 13.544-20.139 24.624-25.119z" fill="#ffbdbc"/><circle cx="156.018" cy="236.036" fill="#ffdede" r="40"/><circle cx="356.018" cy="236.036" fill="#ffdede" r="40"/><path d="m321.018 452.036c-3.71 28.139-31.396 50-65 50-33.604 0-61.29-21.861-65-50" fill="#ffbdbc"/><path d="m336.018 386.036c-44.183-13.333-115.817-13.333-160 0 0-44.183 35.817-80 80-80s80 35.817 80 80z" fill="#ffbecb"/><path d="m323.278 342.716c-39.84-8.9-94.68-8.9-134.52 0 14.24-22.07 39.04-36.68 67.26-36.68s53.02 14.61 67.26 36.68z" fill="#fff"/><g fill="#ff7b79"><path d="m196.009 296.037c3.177 0 6.301-1.511 8.24-4.323 3.136-4.546 1.993-10.773-2.554-13.909-3.366-2.322-7.019-4.292-10.865-5.928 9.357-9.091 15.187-21.794 15.187-35.84 0-27.57-22.43-50-50-50s-50 22.43-50 50c0 15.756 7.333 29.824 18.757 38.996-1.525.863-3.005 1.787-4.435 2.773-4.547 3.136-5.689 9.363-2.554 13.909 3.136 4.547 9.362 5.689 13.909 2.554 15.895-10.963 42.75-10.963 58.645 0 1.735 1.195 3.712 1.768 5.67 1.768zm-39.991-30.001c-16.542 0-30-13.458-30-30s13.458-30 30-30 30 13.458 30 30-13.458 30-30 30z"/><path d="m410.586 119.133c-37.311-9.919-77.508 4.336-91.519 32.442-2.463 4.942-.454 10.947 4.489 13.411 1.433.714 2.954 1.052 4.453 1.052 3.673 0 7.208-2.03 8.958-5.541 9.599-19.259 40.955-29.35 68.481-22.036 5.332 1.422 10.814-1.758 12.232-7.096 1.421-5.338-1.756-10.814-7.094-12.232z"/><path d="m177.068 160.497c1.75 3.511 5.285 5.541 8.958 5.541 1.499 0 3.021-.338 4.453-1.052 4.943-2.464 6.952-8.469 4.489-13.411-14.011-28.107-54.212-42.36-91.519-32.442-5.338 1.418-8.515 6.895-7.096 12.232 1.418 5.339 6.899 8.52 12.232 7.096 27.525-7.316 58.884 2.778 68.483 22.036z"/><path d="m406.018 236.036c0-27.57-22.43-50-50-50s-50 22.43-50 50c0 14.046 5.83 26.749 15.187 35.84-3.846 1.636-7.499 3.606-10.865 5.928-4.547 3.136-5.689 9.363-2.554 13.909 3.136 4.547 9.362 5.689 13.909 2.554 15.895-10.963 42.75-10.963 58.645 0 1.733 1.196 3.711 1.77 5.669 1.77 3.177 0 6.301-1.511 8.24-4.323 3.136-4.546 1.993-10.773-2.554-13.909-1.43-.986-2.91-1.91-4.435-2.773 11.425-9.172 18.758-23.24 18.758-38.996zm-50 30c-16.542 0-30-13.458-30-30s13.458-30 30-30 30 13.458 30 30-13.458 30-30 30z"/><path d="m453.104 62.996c-5.807-13.536-16.36-24.298-29.716-30.302-96.979-43.592-237.761-43.593-334.742.001-13.354 6.003-23.907 16.764-29.713 30.299-44.013 102.586-44.013 251.5-.001 354.086 5.806 13.533 16.357 24.292 29.712 30.296 29.422 13.226 63.017 22.597 99.867 27.888 12.435 21.962 38.176 36.772 67.507 36.772s55.072-14.81 67.507-36.772c36.85-5.291 70.445-14.663 99.868-27.888 13.354-6.004 23.905-16.763 29.71-30.296 44.013-102.584 44.013-251.498.001-354.084zm-18.381 346.199c-3.824 8.915-10.761 15.996-19.53 19.938-25.012 11.243-53.339 19.549-84.348 24.756.026-.184.063-.364.087-.547.722-5.475-3.132-10.499-8.607-11.221-5.479-.728-10.499 3.132-11.221 8.607-3.104 23.549-26.787 41.307-55.086 41.307s-51.981-17.758-55.086-41.307c-.722-5.476-5.75-9.335-11.221-8.607-5.476.722-9.329 5.746-8.607 11.221.024.184.061.364.087.547-31.008-5.208-59.336-13.513-84.347-24.756-8.771-3.942-15.707-11.023-19.532-19.938-20.18-47.038-31.294-107.112-31.294-169.158s11.114-122.12 31.295-169.158c3.825-8.917 10.762-15.999 19.532-19.941 44.331-19.927 100.859-30.901 159.172-30.901s114.841 10.974 159.171 30.9c8.772 3.943 15.711 11.026 19.536 19.944 20.181 47.038 31.294 107.112 31.294 169.157 0 62.046-11.114 122.12-31.295 169.157z"/><path d="m256.018 296.036c-49.626 0-90 40.374-90 90 0 3.164 1.497 6.142 4.037 8.027 2.54 1.888 5.824 2.461 8.852 1.546 42.52-12.83 111.703-12.83 154.223 0 .948.286 1.921.427 2.888.427 2.123 0 4.219-.676 5.964-1.973 2.54-1.886 4.037-4.863 4.037-8.027-.001-49.626-40.375-90-90.001-90zm0 70.082c-24.163 0-48.323 2.233-68.749 6.702 6.196-32.303 34.667-56.784 68.749-56.784s62.553 24.481 68.749 56.784c-20.426-4.469-44.586-6.702-68.749-6.702z"/></g></g></svg>