<svg id="Layer_1" enable-background="new 0 0 512.036 512.036" height="512" viewBox="0 0 512.036 512.036" width="512" xmlns="http://www.w3.org/2000/svg"><g><path d="m92.745 41.816c94.267-42.374 232.276-42.374 326.543-.001 11.081 4.981 19.836 13.957 24.626 25.122 42.805 99.774 42.804 246.427-.002 346.2-4.789 11.162-13.542 20.137-24.621 25.117-94.268 42.375-232.281 42.375-326.549 0-11.079-4.98-19.832-13.954-24.621-25.117-42.805-99.773-42.805-246.427.001-346.201 4.789-11.164 13.544-20.139 24.623-25.12z" fill="#a0c8ff"/><path d="m296.018 156.036h-80c-22.091 0-40-17.909-40-40 0-22.091 17.909-40 40-40h80c22.091 0 40 17.909 40 40 0 22.091-17.909 40-40 40z" fill="#fff"/><path d="m321.018 452.036c-3.71 28.139-31.396 50-65 50-33.604 0-61.29-21.861-65-50" fill="#a0c8ff"/><path d="m356.018 156.036h-200c-38.66 0-70 31.34-70 70 0 38.66 31.34 70 70 70h61.26c4.44-17.252 20.101-30 38.74-30s34.299 12.748 38.74 30h61.26c38.66 0 70-31.34 70-70 0-38.66-31.34-70-70-70z" fill="#fff2a0"/><circle cx="156.018" cy="226.036" fill="#fffbdf" r="30"/><circle cx="356.018" cy="226.036" fill="#fffbdf" r="30"/><g fill="#9d9ae8"><path d="m453.104 62.995c-5.807-13.536-16.36-24.297-29.716-30.3-96.98-43.593-237.762-43.593-334.742.001-13.354 6.003-23.907 16.763-29.713 30.297-44.013 102.586-44.013 251.502 0 354.087 5.806 13.533 16.356 24.292 29.711 30.295 29.423 13.226 63.019 22.598 99.867 27.888 12.435 21.962 38.177 36.772 67.507 36.772s55.072-14.81 67.507-36.772c36.848-5.29 70.443-14.662 99.868-27.889 13.354-6.003 23.904-16.762 29.71-30.295 44.012-102.583 44.012-251.497.001-354.084zm-18.38 346.199c-3.825 8.915-10.762 15.997-19.531 19.939-25.013 11.243-53.341 19.549-84.348 24.756.026-.183.063-.363.087-.547.722-5.476-3.132-10.5-8.607-11.221-5.479-.722-10.499 3.132-11.221 8.607-3.104 23.549-26.787 41.307-55.086 41.307s-51.981-17.758-55.086-41.307c-.722-5.475-5.75-9.329-11.221-8.607-5.476.722-9.329 5.746-8.607 11.221.024.184.061.364.087.547-31.007-5.207-59.334-13.513-84.347-24.756-8.771-3.943-15.707-11.024-19.532-19.939-20.18-47.037-31.294-107.112-31.294-169.158 0-62.045 11.114-122.121 31.295-169.159 3.824-8.917 10.762-15.998 19.532-19.94 44.331-19.927 100.858-30.902 159.172-30.902 58.313 0 114.841 10.974 159.172 30.901 8.771 3.943 15.709 11.025 19.535 19.944 20.181 47.038 31.294 107.112 31.294 169.158s-11.114 122.12-31.294 169.156z"/><path d="m156.018 186.036c-22.056 0-40 17.944-40 40s17.944 40 40 40 40-17.944 40-40-17.945-40-40-40zm0 60c-11.028 0-20-8.972-20-20s8.972-20 20-20 20 8.972 20 20-8.972 20-20 20z"/><path d="m356.018 186.036c-22.056 0-40 17.944-40 40s17.944 40 40 40 40-17.944 40-40-17.945-40-40-40zm0 60c-11.028 0-20-8.972-20-20s8.972-20 20-20 20 8.972 20 20-8.972 20-20 20z"/><path d="m356.018 146.036h-20.028c6.292-8.363 10.027-18.753 10.027-30 0-27.57-22.43-50-50-50h-80c-27.57 0-50 22.43-50 50 0 11.247 3.735 21.637 10.027 30h-20.027c-44.112 0-80 35.888-80 80s35.888 80 80 80h61.26c4.563 0 8.547-3.088 9.685-7.507 3.409-13.244 15.357-22.493 29.056-22.493s25.646 9.25 29.056 22.493c1.138 4.418 5.122 7.507 9.685 7.507h61.26c44.112 0 80-35.888 80-80s-35.889-80-80.001-80zm-170-30c0-16.542 13.458-30 30-30h80c16.542 0 30 13.458 30 30s-13.458 30-30 30h-80c-16.542 0-30-13.458-30-30zm170 170h-54.156c-7.832-17.995-25.703-30-45.844-30s-38.012 12.005-45.844 30h-54.156c-33.084 0-60-26.916-60-60s26.916-60 60-60h200c33.084 0 60 26.916 60 60s-26.916 60-60 60z"/></g><g><path d="m296.018 126.036h-80c-5.522 0-10-4.477-10-10s4.478-10 10-10h80c5.522 0 10 4.477 10 10s-4.478 10-10 10z" fill="#e6e6f9"/></g></g></svg>