<svg id="Layer_1" enable-background="new 0 0 512.036 512.036" height="512" viewBox="0 0 512.036 512.036" width="512" xmlns="http://www.w3.org/2000/svg"><g><path d="m92.746 41.817c94.267-42.374 232.276-42.374 326.543-.001 11.081 4.981 19.836 13.957 24.626 25.122 42.805 99.774 42.804 246.427-.002 346.2-4.789 11.162-13.542 20.137-24.621 25.117-94.268 42.375-232.281 42.375-326.549 0-11.079-4.98-19.832-13.954-24.621-25.117-42.805-99.774-42.806-246.428 0-346.202 4.79-11.164 13.544-20.139 24.624-25.119z" fill="#fff2a0"/><path d="m146.018 306.036c0 16.569-13.431 30-30 30s-30-13.431-30-30 30-50 30-50 30 33.431 30 50z" fill="#ccf5fc"/><path d="m321.018 452.036c-3.71 28.139-31.396 50-65 50-33.604 0-61.29-21.861-65-50" fill="#fff2a0"/><g fill="#ffa96b"><path d="m116.018 246.036c-2.84 0-5.546 1.208-7.443 3.321-.321.357-7.949 8.883-15.676 19.627-11.359 15.796-16.881 27.915-16.881 37.052 0 22.056 17.944 40 40 40s40-17.944 40-40c0-19.414-27.121-50.62-32.557-56.679-1.897-2.113-4.603-3.321-7.443-3.321zm0 80c-11.028 0-20-8.972-20-20 0-5.154 7.466-18.982 19.977-34.535 10.635 13.332 20.023 28.337 20.023 34.535 0 11.028-8.972 20-20 20z"/><path d="m453.104 62.996c-5.807-13.536-16.36-24.297-29.716-30.302-96.981-43.592-237.76-43.593-334.743.001-13.354 6.003-23.907 16.764-29.713 30.299-44.012 102.585-44.012 251.5.001 354.086 5.806 13.533 16.357 24.293 29.71 30.296 29.423 13.225 63.017 22.597 99.868 27.889 12.435 21.962 38.177 36.771 67.507 36.771s55.072-14.81 67.507-36.771c36.85-5.292 70.445-14.664 99.868-27.889 13.354-6.003 23.905-16.763 29.71-30.296 44.013-102.584 44.013-251.498.001-354.084zm-18.381 346.199c-3.825 8.915-10.761 15.996-19.531 19.938-25.011 11.243-53.339 19.548-84.347 24.756.026-.183.063-.363.087-.547.722-5.475-3.131-10.499-8.607-11.221-5.474-.723-10.5 3.131-11.221 8.607-3.105 23.549-26.787 41.307-55.086 41.307s-51.981-17.758-55.086-41.307c-.722-5.476-5.75-9.335-11.221-8.607-5.476.722-9.329 5.746-8.607 11.221.024.184.061.364.087.547-31.008-5.208-59.336-13.513-84.347-24.756-8.77-3.942-15.706-11.023-19.531-19.938-20.181-47.038-31.294-107.112-31.295-169.158 0-62.046 11.114-122.12 31.294-169.158 3.826-8.917 10.763-15.999 19.534-19.941 44.331-19.927 100.858-30.901 159.171-30.901s114.841 10.974 159.172 30.9c8.772 3.943 15.71 11.026 19.536 19.944 20.18 47.038 31.294 107.112 31.293 169.157-.001 62.046-11.114 122.12-31.295 169.157z"/><path d="m103.45 162.939c8.022 2.133 16.176 3.146 24.176 3.146 29.207 0 56.344-13.525 67.342-35.589 2.464-4.942.454-10.947-4.489-13.411s-10.948-.455-13.411 4.489c-9.6 19.259-40.961 29.346-68.482 22.036-5.341-1.425-10.814 1.759-12.233 7.096-1.418 5.339 1.759 10.815 7.097 12.233z"/><path d="m405.45 143.611c-27.522 7.312-58.882-2.778-68.482-22.036-2.464-4.942-8.467-6.952-13.411-4.489-4.943 2.464-6.953 8.469-4.489 13.411 10.999 22.065 38.133 35.589 67.342 35.589 7.999 0 16.156-1.015 24.176-3.146 5.337-1.418 8.515-6.895 7.096-12.232-1.418-5.339-6.896-8.522-12.232-7.097z"/><path d="m391.018 186.036c-5.523 0-10 4.478-10 10 0 16.542-11.215 30-25 30s-25-13.458-25-30c0-5.522-4.477-10-10-10s-10 4.478-10 10c0 27.57 20.187 50 45 50s45-22.43 45-50c0-5.523-4.477-10-10-10z"/><path d="m201.018 196.036c0-5.522-4.477-10-10-10s-10 4.478-10 10c0 16.542-11.215 30-25 30s-25-13.458-25-30c0-5.522-4.477-10-10-10s-10 4.478-10 10c0 27.57 20.187 50 45 50s45-22.43 45-50z"/><path d="m256.018 326.036c-29.178 0-56.591 11.737-77.19 33.051-3.838 3.971-3.73 10.302.241 14.14 3.971 3.84 10.302 3.731 14.14-.241 16.797-17.378 39.103-26.949 62.81-26.949s46.013 9.571 62.81 26.949c1.962 2.03 4.575 3.051 7.191 3.051 2.502 0 5.007-.934 6.949-2.81 3.971-3.838 4.079-10.169.241-14.14-20.601-21.314-48.014-33.051-77.192-33.051z"/></g></g></svg>