<svg id="Layer_1" enable-background="new 0 0 512.036 512.036" height="512" viewBox="0 0 512.036 512.036" width="512" xmlns="http://www.w3.org/2000/svg"><g><path d="m92.745 41.816c94.267-42.374 232.276-42.374 326.543-.001 11.081 4.981 19.836 13.957 24.626 25.122 42.805 99.774 42.804 246.427-.002 346.2-4.789 11.162-13.542 20.137-24.621 25.117-94.268 42.375-232.281 42.375-326.549 0-11.079-4.98-19.832-13.954-24.621-25.117-42.805-99.773-42.805-246.427.001-346.201 4.789-11.164 13.544-20.139 24.623-25.12z" fill="#fff2a0"/><path d="m321.018 452.036c-3.71 28.139-31.396 50-65 50-33.604 0-61.29-21.861-65-50" fill="#fff2a0"/><path d="m336.018 386.036c-44.183-13.333-115.817-13.333-160 0 0-44.183 35.817-80 80-80s80 35.817 80 80z" fill="#ffbdbc"/><path d="m323.278 342.716c-39.84-8.9-94.68-8.9-134.52 0 14.24-22.07 39.04-36.68 67.26-36.68s53.02 14.609 67.26 36.68z" fill="#fff"/><g fill="#ffa96b"><path d="m453.104 62.995c-5.807-13.536-16.36-24.298-29.716-30.302-96.98-43.592-237.76-43.592-334.743.001-13.354 6.003-23.907 16.764-29.713 30.299-44.012 102.585-44.012 251.5.001 354.086 5.806 13.533 16.357 24.293 29.71 30.296 29.423 13.225 63.017 22.597 99.868 27.889 12.435 21.962 38.177 36.771 67.507 36.771 29.331 0 55.072-14.81 67.507-36.772 36.85-5.291 70.444-14.663 99.868-27.888 13.354-6.004 23.905-16.763 29.71-30.296 44.013-102.584 44.013-251.498.001-354.084zm-18.381 346.2c-3.824 8.915-10.761 15.996-19.53 19.938-25.012 11.243-53.339 19.549-84.348 24.756.026-.184.063-.364.087-.547.722-5.475-3.132-10.499-8.607-11.221-5.474-.728-10.499 3.132-11.221 8.607-3.104 23.549-26.787 41.307-55.086 41.307s-51.981-17.758-55.086-41.307c-.722-5.476-5.75-9.335-11.221-8.607-5.476.722-9.329 5.746-8.607 11.221.024.184.061.364.087.547-31.008-5.208-59.336-13.513-84.347-24.756-8.77-3.942-15.706-11.023-19.531-19.938-20.181-47.038-31.294-107.112-31.295-169.158 0-62.046 11.114-122.12 31.294-169.158 3.826-8.917 10.763-15.999 19.534-19.941 44.331-19.927 100.858-30.901 159.171-30.901s114.841 10.974 159.171 30.9c8.772 3.943 15.711 11.026 19.536 19.944 20.181 47.038 31.294 107.112 31.294 169.157s-11.114 122.12-31.295 169.157z"/><path d="m194.968 130.496c2.464-4.942.454-10.947-4.489-13.411s-10.948-.455-13.411 4.489c-9.601 19.259-40.962 29.346-68.482 22.036-5.341-1.425-10.814 1.759-12.233 7.096-1.418 5.338 1.759 10.814 7.096 12.232 8.022 2.133 16.176 3.146 24.176 3.146 29.207.001 56.345-13.524 67.343-35.588z"/><path d="m405.449 143.611c-27.524 7.313-58.883-2.779-68.481-22.036-2.464-4.943-8.468-6.951-13.411-4.489-4.943 2.464-6.952 8.469-4.489 13.411 10.999 22.065 38.134 35.589 67.343 35.589 7.998 0 16.156-1.015 24.176-3.146 5.338-1.418 8.515-6.895 7.096-12.232-1.419-5.34-6.9-8.52-12.234-7.097z"/><path d="m391.018 186.036c-5.522 0-10 4.478-10 10 0 16.542-11.215 30-25 30s-25-13.458-25-30c0-5.522-4.478-10-10-10s-10 4.478-10 10c0 27.57 20.187 50 45 50s45-22.43 45-50c0-5.523-4.478-10-10-10z"/><path d="m201.018 196.036c0-5.522-4.477-10-10-10s-10 4.478-10 10c0 16.542-11.215 30-25 30s-25-13.458-25-30c0-5.522-4.477-10-10-10s-10 4.478-10 10c0 27.57 20.187 50 45 50s45-22.43 45-50z"/><path d="m256.018 296.036c-49.626 0-90 40.374-90 90 0 3.164 1.497 6.142 4.037 8.027 2.54 1.889 5.823 2.461 8.852 1.546 42.519-12.83 111.703-12.83 154.222 0 .948.286 1.921.427 2.888.427 2.123 0 4.219-.676 5.964-1.973 2.54-1.886 4.037-4.863 4.037-8.027 0-49.626-40.374-90-90-90zm0 70.082c-24.163 0-48.323 2.233-68.749 6.702 6.196-32.303 34.667-56.784 68.749-56.784s62.553 24.481 68.749 56.784c-20.426-4.469-44.586-6.702-68.749-6.702z"/></g></g></svg>